<svg width="32" height="32" fill="none" xmlns="http://www.w3.org/2000/svg"><path d="M16 7.66667V1M16 7.66667C14.3518 7.66667 12.7407 8.15541 11.3702 9.07109C9.99984 9.98676 8.93173 11.2883 8.301 12.811C7.67027 14.3337 7.50525 16.0092 7.82679 17.6258C8.14833 19.2423 8.94201 20.7271 10.1074 21.8926C11.2729 23.058 12.7577 23.8517 14.3742 24.1732C15.9908 24.4948 17.6663 24.3297 19.189 23.699C20.7117 23.0683 22.0132 22.0002 22.9289 20.6298C23.8446 19.2593 24.3333 17.6482 24.3333 16M16 7.66667C18.2101 7.66667 20.3298 8.54464 21.8926 10.1074C23.4554 11.6702 24.3333 13.7899 24.3333 16M21.9 10.1L26.6 5.4M24.3333 16H31M21.9 21.9L26.6 26.6M16 24.3333V31M10.1 21.9L5.4 26.6M7.66667 16H1M10.1 10.1L5.4 5.4" stroke="#1E1E1E" stroke-width="2" stroke-linecap="round" stroke-linejoin="round"/></svg>