<svg width="141" height="164" viewBox="0 0 141 164" fill="none" xmlns="http://www.w3.org/2000/svg">
<path d="M51.1321 127.83C51.1306 130.642 50.3562 133.399 48.8936 135.801C47.431 138.202 45.3364 140.156 42.8387 141.447C40.3411 142.739 37.5364 143.319 34.7312 143.125C31.9261 142.93 29.2284 141.968 26.9329 140.344C24.6374 138.72 22.8325 136.496 21.7154 133.916C20.5983 131.336 20.2119 128.498 20.5986 125.712C20.9853 122.927 22.1301 120.302 23.9079 118.123C25.6858 115.945 28.0282 114.297 30.6793 113.36V97.1507C30.6793 95.7946 31.218 94.4941 32.1769 93.5352C33.1358 92.5762 34.4364 92.0375 35.7925 92.0375C37.1486 92.0375 38.4491 92.5762 39.4081 93.5352C40.367 94.4941 40.9057 95.7946 40.9057 97.1507V113.36C43.8977 114.417 46.488 116.377 48.3195 118.969C50.1511 121.56 51.1337 124.656 51.1321 127.83Z" fill="white"/>
<path d="M10.2264 25.566C10.2264 18.7855 12.92 12.2827 17.7145 7.4881C22.5091 2.69355 29.0119 0 35.7924 0C42.5729 0 49.0757 2.69355 53.8703 7.4881C58.6648 12.2827 61.3584 18.7855 61.3584 25.566V102.775C66.2909 107.81 69.6274 114.188 70.9494 121.111C72.2715 128.034 71.5203 135.193 68.7899 141.69C66.0596 148.188 61.4717 153.735 55.6016 157.636C49.7315 161.536 42.8404 163.617 35.7924 163.617C28.7444 163.617 21.8533 161.536 15.9832 157.636C10.1131 153.735 5.52519 148.188 2.79487 141.69C0.0645424 135.193 -0.6867 128.034 0.635343 121.111C1.95739 114.188 5.29387 107.81 10.2264 102.775V25.566ZM35.7924 10.2264C31.7241 10.2264 27.8224 11.8425 24.9457 14.7193C22.0689 17.596 20.4528 21.4977 20.4528 25.566V107.244L18.745 108.778C14.8853 112.23 12.1646 116.772 10.943 121.804C9.72138 126.836 10.0564 132.12 11.9038 136.957C13.7512 141.794 17.0239 145.956 21.2886 148.893C25.5534 151.829 30.6093 153.401 35.7873 153.401C40.9652 153.401 46.0211 151.829 50.2859 148.893C54.5507 145.956 57.8233 141.794 59.6707 136.957C61.5181 132.12 61.8532 126.836 60.6316 121.804C59.41 116.772 56.6893 112.23 52.8296 108.778L51.132 107.234V25.566C51.132 21.4977 49.5159 17.596 46.6391 14.7193C43.7624 11.8425 39.8607 10.2264 35.7924 10.2264ZM86.9244 20.4528C88.2805 20.4528 89.581 20.9915 90.5399 21.9504C91.4989 22.9093 92.0376 24.2099 92.0376 25.566V38.7887L98.6438 32.1722C99.6039 31.2121 100.906 30.6727 102.264 30.6727C103.622 30.6727 104.924 31.2121 105.884 32.1722C106.844 33.1324 107.384 34.4346 107.384 35.7924C107.384 37.1502 106.844 38.4524 105.884 39.4125L92.0376 53.2488V72.9551L109.105 63.1071L114.167 44.1883C114.342 43.5396 114.643 42.9317 115.052 42.3992C115.462 41.8668 115.972 41.4202 116.554 41.085C117.136 40.7498 117.779 40.5325 118.445 40.4456C119.111 40.3586 119.788 40.4037 120.436 40.5783C121.085 40.7529 121.693 41.0535 122.225 41.4631C122.758 41.8726 123.204 42.383 123.54 42.9651C123.875 43.5472 124.092 44.1896 124.179 44.8557C124.266 45.5218 124.221 46.1985 124.046 46.8471L121.623 55.8668L133.076 49.2605C134.25 48.5932 135.64 48.4172 136.943 48.771C138.246 49.1247 139.356 49.9796 140.031 51.1489C140.707 52.3182 140.892 53.7071 140.547 55.0125C140.202 56.3179 139.354 57.4337 138.189 58.1166L126.736 64.7229L135.776 67.1465C136.424 67.3211 137.032 67.6217 137.565 68.0312C138.097 68.4408 138.544 68.9511 138.879 69.5333C139.214 70.1154 139.432 70.7578 139.519 71.4239C139.605 72.09 139.56 72.7666 139.386 73.4153C139.211 74.0639 138.911 74.6718 138.501 75.2043C138.092 75.7368 137.581 76.1833 136.999 76.5186C136.417 76.8538 135.774 77.071 135.108 77.158C134.442 77.2449 133.766 77.1998 133.117 77.0252L114.219 71.9631L97.1508 81.8112L114.219 91.6592L133.127 86.5971C133.78 86.411 134.463 86.3568 135.137 86.4374C135.811 86.5181 136.462 86.7321 137.052 87.067C137.642 87.4019 138.16 87.851 138.575 88.388C138.99 88.925 139.294 89.5393 139.469 90.195C139.644 90.8507 139.687 91.5347 139.595 92.2071C139.503 92.8795 139.278 93.5269 138.934 94.1115C138.589 94.6961 138.131 95.2063 137.587 95.6122C137.043 96.0181 136.424 96.3117 135.766 96.4758L126.736 98.8995L138.189 105.506C139.354 106.189 140.202 107.304 140.547 108.61C140.892 109.915 140.707 111.304 140.031 112.473C139.356 113.643 138.246 114.498 136.943 114.851C135.64 115.205 134.25 115.029 133.076 114.362L121.623 107.756L124.046 116.785C124.232 117.438 124.287 118.121 124.206 118.795C124.125 119.469 123.911 120.12 123.576 120.71C123.241 121.301 122.792 121.818 122.255 122.233C121.718 122.648 121.104 122.952 120.448 123.127C119.793 123.302 119.109 123.345 118.436 123.253C117.764 123.161 117.116 122.937 116.532 122.592C115.947 122.247 115.437 121.789 115.031 121.246C114.625 120.702 114.332 120.082 114.167 119.424L109.116 100.525L92.0376 90.6672V110.373L105.884 124.21C106.36 124.685 106.737 125.25 106.994 125.871C107.251 126.492 107.384 127.158 107.384 127.83C107.384 128.502 107.251 129.168 106.994 129.789C106.737 130.41 106.36 130.975 105.884 131.45C105.409 131.925 104.844 132.303 104.223 132.56C103.602 132.817 102.936 132.95 102.264 132.95C101.592 132.95 100.926 132.817 100.305 132.56C99.6836 132.303 99.1192 131.925 98.6438 131.45L92.0376 124.834V138.056C92.0376 139.412 91.4989 140.713 90.5399 141.672C89.581 142.631 88.2805 143.17 86.9244 143.17C85.5683 143.17 84.2677 142.631 83.3088 141.672C82.3499 140.713 81.8112 139.412 81.8112 138.056V25.566C81.8112 24.2099 82.3499 22.9093 83.3088 21.9504C84.2677 20.9915 85.5683 20.4528 86.9244 20.4528Z" fill="white"/>
</svg>
