<svg width="32" height="30" fill="none" xmlns="http://www.w3.org/2000/svg"><path d="M1 22.4118H31M1 15.8235H2.66667M6.56667 6.50118L5.4 5.34824M16 1V2.64706M26.6 5.34824L25.4333 6.50118M31 15.8235H29.3333M6 29H26M16 9.23529C14.6815 9.23529 13.3925 9.62169 12.2962 10.3456C11.1999 11.0695 10.3454 12.0985 9.8408 13.3023C9.33622 14.5062 9.2042 15.8308 9.46143 17.1088C9.71867 18.3868 10.3536 19.5607 11.286 20.4821C12.2183 21.4035 13.4062 22.031 14.6994 22.2852C15.9926 22.5394 17.333 22.4089 18.5512 21.9103C19.7694 21.4116 20.8106 20.5672 21.5431 19.4838C22.2757 18.4003 22.6667 17.1266 22.6667 15.8235C22.6667 14.0762 21.9643 12.4005 20.714 11.1649C19.4638 9.92941 17.7681 9.23529 16 9.23529Z" stroke="#1E1E1E" stroke-width="2" stroke-linecap="round" stroke-linejoin="round"/></svg>