<svg width="40" height="40" fill="none" xmlns="http://www.w3.org/2000/svg"><g clip-path="url(#clip0_11489_47591)"><path d="M27.7889 15.164C27.302 15.1706 26.8174 15.2352 26.3448 15.3565C25.4516 14.0656 24.2079 13.0774 22.7711 12.517C21.3343 11.9565 19.7689 11.849 18.2729 12.2079C16.7769 12.5669 15.4176 13.3763 14.3668 14.5336C13.3161 15.691 12.6211 17.1443 12.3699 18.7099C11.7303 18.4488 11.0427 18.3373 10.3565 18.3833C9.67024 18.4294 9.00239 18.6318 8.40086 18.9762C7.79933 19.3205 7.27905 19.7982 6.87736 20.3749C6.47566 20.9517 6.20253 21.6132 6.07756 22.3119C5.9526 23.0106 5.9789 23.7293 6.15457 24.4163C6.33025 25.1033 6.65095 25.7415 7.09365 26.2853C7.53634 26.829 8.09006 27.2647 8.71503 27.5612C9.34001 27.8576 10.0208 28.0074 10.7084 27.9997H27.7889C29.4362 27.9997 31.016 27.3236 32.1808 26.12C33.3456 24.9164 34 23.284 34 21.5819C34 19.8797 33.3456 18.2473 32.1808 17.0437C31.016 15.8402 29.4362 15.164 27.7889 15.164Z" stroke="#1E1E1E" stroke-width="2" stroke-linecap="round" stroke-linejoin="round"/></g><defs><clipPath id="clip0_11489_47591"><path fill="#fff" d="M0 0H40V40H0z"/></clipPath></defs></svg>