<svg width="119" height="119" viewBox="0 0 119 119" fill="none" xmlns="http://www.w3.org/2000/svg">
<g clip-path="url(#clip0_202_3)">
<path fill-rule="evenodd" clip-rule="evenodd" d="M59.4999 9.91669C60.815 9.91669 62.0761 10.4391 63.006 11.3689C63.9359 12.2988 64.4583 13.56 64.4583 14.875V19.6449L67.701 17.9294C68.8635 17.3146 70.2226 17.1868 71.4793 17.5741C72.736 17.9614 73.7874 18.832 74.4022 19.9945C75.017 21.157 75.1448 22.5161 74.7575 23.7728C74.3702 25.0295 73.4995 26.0809 72.3371 26.6957L64.4583 30.8607V40.2914C68.0035 41.2038 71.1619 43.0681 73.651 45.6018L81.8223 40.8864L81.4901 31.9813C81.4408 30.6669 81.9157 29.3868 82.8102 28.4225C83.7047 27.4582 84.9457 26.8888 86.26 26.8395C87.5744 26.7902 88.8546 27.265 89.8188 28.1595C90.7831 29.0541 91.3525 30.295 91.4018 31.6094L91.5357 35.2786L95.666 32.8936C96.2301 32.5629 96.8541 32.347 97.502 32.2584C98.1498 32.1699 98.8088 32.2103 99.441 32.3774C100.073 32.5446 100.666 32.8351 101.186 33.2323C101.705 33.6295 102.141 34.1256 102.468 34.6919C102.795 35.2581 103.006 35.8835 103.091 36.532C103.175 37.1804 103.13 37.8391 102.959 38.4702C102.787 39.1013 102.493 39.6922 102.092 40.209C101.692 40.7258 101.193 41.1582 100.624 41.4814L96.4941 43.8614L99.6029 45.815C100.154 46.1614 100.632 46.6131 101.009 47.1442C101.386 47.6752 101.655 48.2754 101.8 48.9103C101.945 49.5452 101.964 50.2025 101.855 50.8446C101.746 51.4867 101.511 52.101 101.165 52.6526C100.818 53.2041 100.367 53.682 99.8357 54.0589C99.3046 54.4359 98.7044 54.7046 98.0695 54.8496C97.4346 54.9946 96.7773 55.0132 96.1352 54.9042C95.4931 54.7952 94.8788 54.5608 94.3273 54.2144L86.7807 49.4743L78.6143 54.1847C79.5805 57.6607 79.5805 61.3344 78.6143 64.8104L86.7807 69.5258L94.3273 64.7856C95.4411 64.086 96.7872 63.8575 98.0695 64.1504C99.3518 64.4433 100.465 65.2336 101.165 66.3475C101.864 67.4613 102.093 68.8074 101.8 70.0897C101.507 71.372 100.717 72.4854 99.6029 73.185L96.499 75.1336L100.624 77.5186C101.193 77.8418 101.692 78.2742 102.092 78.791C102.493 79.3078 102.787 79.8988 102.959 80.5298C103.13 81.1609 103.175 81.8196 103.091 82.4681C103.006 83.1165 102.795 83.7419 102.468 84.3082C102.141 84.8745 101.705 85.3705 101.186 85.7677C100.666 86.1649 100.073 86.4554 99.441 86.6226C98.8088 86.7897 98.1498 86.8302 97.502 86.7416C96.8541 86.653 96.2301 86.4371 95.666 86.1064L91.5407 83.7264L91.4018 87.3906C91.3525 88.705 90.7831 89.946 89.8188 90.8405C88.8546 91.735 87.5744 92.2099 86.26 92.1606C84.9457 92.1112 83.7047 91.5418 82.8102 90.5775C81.9157 89.6133 81.4408 88.3331 81.4901 87.0188L81.8223 78.1136L73.651 73.3982C71.1619 75.927 67.9985 77.7963 64.4583 78.7086V88.1393L72.3371 92.3043C73.4995 92.9191 74.3702 93.9705 74.7575 95.2272C75.1448 96.484 75.017 97.8431 74.4022 99.0055C73.7874 100.168 72.736 101.039 71.4793 101.426C70.2226 101.813 68.8635 101.685 67.701 101.071L64.4583 99.3551V104.125C64.4583 105.44 63.9359 106.701 63.006 107.631C62.0761 108.561 60.815 109.083 59.4999 109.083C58.1849 109.083 56.9237 108.561 55.9939 107.631C55.064 106.701 54.5416 105.44 54.5416 104.125V99.3551L51.2988 101.071C50.7232 101.375 50.0933 101.563 49.445 101.624C48.7967 101.685 48.1428 101.618 47.5205 101.426C46.8983 101.234 46.3199 100.922 45.8184 100.506C45.3169 100.091 44.9021 99.5811 44.5977 99.0055C44.2933 98.4299 44.1052 97.8 44.0442 97.1517C43.9833 96.5034 44.0506 95.8495 44.2424 95.2272C44.4341 94.605 44.7466 94.0266 45.1619 93.5251C45.5772 93.0236 46.0872 92.6088 46.6628 92.3043L54.5416 88.1393V78.7086C51.0508 77.8062 47.8724 75.9685 45.3488 73.3933L37.1775 78.1136L37.5097 87.0188C37.5338 87.6696 37.4295 88.3188 37.2027 88.9293C36.9759 89.5397 36.6311 90.0996 36.1879 90.5768C35.7448 91.054 35.2119 91.4393 34.6199 91.7106C34.0278 91.9819 33.3881 92.134 32.7373 92.1581C32.0865 92.1822 31.4373 92.0778 30.8268 91.851C30.2163 91.6242 29.6565 91.2794 29.1793 90.8363C28.702 90.3931 28.3168 89.8603 28.0455 89.2682C27.7741 88.6762 27.6221 88.0365 27.598 87.3857L27.4641 83.7215L23.3338 86.1015C22.7694 86.4507 22.1406 86.683 21.4847 86.7847C20.8288 86.8863 20.1592 86.8553 19.5155 86.6934C18.8718 86.5314 18.2672 86.2419 17.7375 85.842C17.2078 85.4421 16.7638 84.9399 16.4318 84.3651C16.0998 83.7904 15.8865 83.1549 15.8047 82.4962C15.7228 81.8376 15.7741 81.1692 15.9553 80.5307C16.1366 79.8922 16.4442 79.2966 16.8599 78.7792C17.2757 78.2618 17.791 77.8331 18.3755 77.5186L22.5058 75.1336L19.3969 73.1801C18.3126 72.4674 17.5508 71.3581 17.2751 70.0902C16.9993 68.8222 17.2316 67.4967 17.9221 66.3981C18.6125 65.2995 19.7061 64.5153 20.9682 64.2138C22.2302 63.9124 23.5602 64.1176 24.6726 64.7856L32.2192 69.5258L40.3856 64.8104C39.421 61.3358 39.421 57.6642 40.3856 54.1896L32.2192 49.4792L24.6726 54.2144C23.5602 54.8824 22.2302 55.0877 20.9682 54.7862C19.7061 54.4847 18.6125 53.7005 17.9221 52.6019C17.2316 51.5033 16.9993 50.1778 17.2751 48.9099C17.5508 47.6419 18.3126 46.5326 19.3969 45.82L22.5058 43.8664L18.3755 41.4864C17.236 40.8289 16.4044 39.7456 16.0636 38.475C15.7228 37.2043 15.9008 35.8503 16.5583 34.7108C17.2158 33.5714 18.299 32.7397 19.5697 32.399C20.8404 32.0582 22.1944 32.2361 23.3338 32.8936L27.4641 35.2786L27.598 31.6094C27.6473 30.295 28.2168 29.0541 29.181 28.1595C29.6585 27.7166 30.2185 27.3721 30.8291 27.1456C31.4397 26.9191 32.089 26.8151 32.7398 26.8395C33.3906 26.8639 34.0302 27.0163 34.6222 27.2879C35.2141 27.5595 35.7467 27.945 36.1897 28.4225C36.6326 28.8999 36.9771 29.46 37.2036 30.0706C37.4301 30.6812 37.5341 31.3305 37.5097 31.9813L37.1775 40.8864L45.3488 45.6068C47.8724 43.0316 51.0508 41.1938 54.5416 40.2914V30.8607L46.6628 26.6957C45.5003 26.0809 44.6297 25.0295 44.2424 23.7728C43.8551 22.5161 43.9829 21.157 44.5977 19.9945C45.2124 18.832 46.2638 17.9614 47.5205 17.5741C48.7773 17.1868 50.1364 17.3146 51.2988 17.9294L54.5416 19.6449V14.875C54.5416 13.56 55.064 12.2988 55.9939 11.3689C56.9237 10.4391 58.1849 9.91669 59.4999 9.91669ZM59.4999 69.4167C62.13 69.4167 64.6523 68.3719 66.5121 66.5122C68.3718 64.6524 69.4166 62.1301 69.4166 59.5C69.4166 56.87 68.3718 54.3476 66.5121 52.4879C64.6523 50.6281 62.13 49.5834 59.4999 49.5834C56.8699 49.5834 54.3475 50.6281 52.4878 52.4879C50.6281 54.3476 49.5833 56.87 49.5833 59.5C49.5833 62.1301 50.6281 64.6524 52.4878 66.5122C54.3475 68.3719 56.8699 69.4167 59.4999 69.4167Z" fill="white"/>
</g>
<defs>
<clipPath id="clip0_202_3">
<rect width="119" height="119" fill="white"/>
</clipPath>
</defs>
</svg>
