<svg width="32" height="32" fill="none" xmlns="http://www.w3.org/2000/svg"><path d="M16 31V29.3333M5.4 26.6L6.56667 25.4333M1 16H2.66667M5.4 5.4L6.56667 6.56667M16 1V2.66667M26.6 5.4L25.4333 6.56667M31 16H29.3333M26.6 26.6L25.4333 25.4333M22.6667 16C22.6667 14.6815 22.2757 13.3925 21.5431 12.2962C20.8106 11.1999 19.7694 10.3454 18.5512 9.8408C17.333 9.33622 15.9926 9.2042 14.6994 9.46143C13.4062 9.71867 12.2183 10.3536 11.286 11.286C10.3536 12.2183 9.71867 13.4062 9.46143 14.6994C9.2042 15.9926 9.33622 17.333 9.8408 18.5512C10.3454 19.7694 11.1999 20.8106 12.2962 21.5431C13.3925 22.2757 14.6815 22.6667 16 22.6667C17.7681 22.6667 19.4638 21.9643 20.714 20.714C21.9643 19.4638 22.6667 17.7681 22.6667 16Z" stroke="#1E1E1E" stroke-width="2" stroke-linecap="round" stroke-linejoin="round"/></svg>